<svg width="185" height="81" viewBox="0 0 185 81" fill="none" xmlns="http://www.w3.org/2000/svg">
<path d="M16.436 26.2089H3.34229V20.7089H35.7798V26.2089H22.686V64.2089H16.436V26.2089Z" fill="black"/>
<path d="M34.7173 20.7089H38.9985L57.3423 64.2089H50.8423L46.436 53.2714H27.1235L22.7485 64.2089H16.3735L34.7173 20.7089ZM44.436 48.2714L36.811 29.2089L29.1548 48.2714H44.436Z" fill="#3A8816"/>
<path d="M62.2258 64.2089V63.2299H62.8803C63.5036 63.2299 64.0518 63.096 64.5248 62.8284C65.0015 62.557 65.3718 62.183 65.6358 61.7064C65.9035 61.226 66.0373 60.6742 66.0373 60.0509C66.0373 59.4312 65.9035 58.8867 65.6358 58.4174C65.3718 57.9444 65.0015 57.5759 64.5248 57.3119C64.0518 57.0479 63.5036 56.9159 62.8803 56.9159H62.2258V55.9369H62.8803C63.731 55.9369 64.479 56.1129 65.1243 56.4649C65.7696 56.8132 66.272 57.2972 66.6313 57.9169C66.9943 58.5329 67.1758 59.2442 67.1758 60.0509C67.1758 60.8685 66.9943 61.5909 66.6313 62.2179C66.272 62.8412 65.7696 63.3289 65.1243 63.6809C64.479 64.0329 63.731 64.2089 62.8803 64.2089H62.2258ZM58.8378 64.2089V63.2299H60.0643V56.9159H58.8378V55.9369H62.5668V56.9159H61.1423V63.2299H62.5668V64.2089H58.8378ZM70.4321 63.3234H71.4991V64.2089H68.2706V63.3234H69.3981V59.2039H68.2706V58.3184H70.4321V63.3234ZM69.2386 55.6674H70.5036V56.9819H69.2386V55.6674ZM75.3604 64.3189C74.9901 64.3189 74.6747 64.2639 74.4144 64.1539C74.1577 64.0402 73.9542 63.8862 73.8039 63.6919C73.6572 63.4939 73.5656 63.2665 73.5289 63.0099H73.2814L73.4849 62.3609C73.5472 62.6909 73.7232 62.9604 74.0129 63.1694C74.3026 63.3784 74.6674 63.4829 75.1074 63.4829C75.4777 63.4829 75.7601 63.4095 75.9544 63.2629C76.1524 63.1125 76.2514 62.8944 76.2514 62.6084C76.2514 62.3407 76.1487 62.1372 75.9434 61.9979C75.7417 61.8549 75.3769 61.7412 74.8489 61.6569C73.9836 61.5212 73.3712 61.3012 73.0119 60.9969C72.6526 60.6925 72.4729 60.2984 72.4729 59.8144C72.4729 59.3377 72.6306 58.9509 72.9459 58.6539C73.2612 58.3569 73.7104 58.2084 74.2934 58.2084C74.6527 58.2084 74.9497 58.2652 75.1844 58.3789C75.4191 58.4925 75.5987 58.6502 75.7234 58.8519C75.8517 59.0499 75.9324 59.2809 75.9654 59.5449H76.2129L76.0094 60.1609C75.9507 59.8345 75.7839 59.5669 75.5089 59.3579C75.2376 59.1489 74.9021 59.0444 74.5024 59.0444C74.1797 59.0444 73.9322 59.114 73.7599 59.2534C73.5912 59.3927 73.5069 59.5705 73.5069 59.7869C73.5069 60.0325 73.6279 60.2269 73.8699 60.3699C74.1156 60.5092 74.4987 60.6229 75.0194 60.7109C75.8481 60.8392 76.4311 61.0574 76.7684 61.3654C77.1094 61.6734 77.2799 62.0877 77.2799 62.6084C77.2799 63.1437 77.1186 63.5635 76.7959 63.8679C76.4769 64.1685 75.9984 64.3189 75.3604 64.3189ZM72.4509 64.2089V62.3609H73.4849V64.2089H72.4509ZM76.0094 60.1609V58.3184H77.0434V60.1609H76.0094ZM81.5615 64.3189C80.9381 64.3189 80.3973 64.1905 79.939 63.9339C79.4806 63.6735 79.1268 63.316 78.8775 62.8614C78.6281 62.403 78.5035 61.8769 78.5035 61.2829C78.5035 60.8355 78.5713 60.4249 78.707 60.0509C78.8426 59.6732 79.037 59.3469 79.29 59.0719C79.543 58.7969 79.8436 58.5842 80.192 58.4339C80.544 58.2835 80.9345 58.2084 81.3635 58.2084C81.7595 58.2084 82.0821 58.2689 82.3315 58.3899C82.5845 58.5109 82.7751 58.6814 82.9035 58.9014C83.0355 59.1177 83.1161 59.3707 83.1455 59.6604H83.393L83.1895 60.5679C83.1455 60.2892 83.0501 60.0417 82.9035 59.8254C82.7568 59.609 82.5643 59.4404 82.326 59.3194C82.0876 59.1984 81.8108 59.1379 81.4955 59.1379C81.1068 59.1379 80.7676 59.2295 80.478 59.4129C80.1883 59.5925 79.9628 59.8437 79.8015 60.1664C79.6401 60.489 79.5595 60.8612 79.5595 61.2829C79.5595 61.6899 79.6401 62.051 79.8015 62.3664C79.9665 62.678 80.1975 62.9237 80.4945 63.1034C80.7951 63.2794 81.1545 63.3674 81.5725 63.3674C81.9868 63.3674 82.3425 63.2794 82.6395 63.1034C82.9365 62.9274 83.1473 62.6909 83.272 62.3939L84.2345 62.8174C84.0401 63.283 83.7083 63.6497 83.239 63.9174C82.7696 64.185 82.2105 64.3189 81.5615 64.3189ZM83.1895 60.5679V58.3184H84.2235V60.5679H83.1895ZM88.5279 64.3189C87.9119 64.3189 87.3711 64.1905 86.9054 63.9339C86.4434 63.6735 86.0822 63.316 85.8219 62.8614C85.5616 62.403 85.4314 61.8769 85.4314 61.2829C85.4314 60.6852 85.5616 60.1554 85.8219 59.6934C86.0822 59.2277 86.4434 58.8647 86.9054 58.6044C87.3711 58.3404 87.9119 58.2084 88.5279 58.2084C89.1439 58.2084 89.6829 58.3404 90.1449 58.6044C90.6106 58.8647 90.9736 59.2277 91.2339 59.6934C91.4942 60.1554 91.6244 60.6852 91.6244 61.2829C91.6244 61.8769 91.4942 62.403 91.2339 62.8614C90.9736 63.316 90.6106 63.6735 90.1449 63.9339C89.6829 64.1905 89.1439 64.3189 88.5279 64.3189ZM88.5279 63.3674C88.9239 63.3674 89.2722 63.2812 89.5729 63.1089C89.8772 62.9365 90.1156 62.6945 90.2879 62.3829C90.4602 62.0712 90.5464 61.7045 90.5464 61.2829C90.5464 60.8649 90.4602 60.4964 90.2879 60.1774C90.1156 59.8584 89.8772 59.609 89.5729 59.4294C89.2722 59.2497 88.9239 59.1599 88.5279 59.1599C88.1319 59.1599 87.7817 59.2497 87.4774 59.4294C87.1767 59.609 86.9402 59.8584 86.7679 60.1774C86.5956 60.4964 86.5094 60.8649 86.5094 61.2829C86.5094 61.7045 86.5956 62.0712 86.7679 62.3829C86.9402 62.6945 87.1767 62.9365 87.4774 63.1089C87.7817 63.2812 88.1319 63.3674 88.5279 63.3674ZM95.9972 58.3184H98.6317V59.2039H97.9992L95.9752 64.2089H94.8532L92.7357 59.2039H92.1142V58.3184H94.8312V59.2039H93.8522L95.8872 64.2089L94.9302 63.1199H95.8982L95.0677 64.2089L96.9762 59.2039H95.9972V58.3184ZM102.158 64.3189C101.539 64.3189 101.003 64.1905 100.552 63.9339C100.101 63.6735 99.7547 63.316 99.5127 62.8614C99.2707 62.403 99.1497 61.8769 99.1497 61.2829C99.1497 60.6852 99.2725 60.1554 99.5182 59.6934C99.7639 59.2277 100.109 58.8647 100.552 58.6044C100.996 58.3404 101.513 58.2084 102.103 58.2084C102.701 58.2084 103.216 58.3385 103.649 58.5989C104.085 58.8592 104.419 59.2204 104.65 59.6824C104.884 60.1444 105.002 60.6779 105.002 61.2829C105.002 61.3709 105 61.4405 104.996 61.4919C104.993 61.5395 104.987 61.5799 104.98 61.6129H103.957C103.964 61.5579 103.97 61.4992 103.973 61.4369C103.977 61.3709 103.979 61.2939 103.979 61.2059C103.979 60.8062 103.904 60.4524 103.753 60.1444C103.607 59.8327 103.394 59.587 103.115 59.4074C102.837 59.2277 102.499 59.1379 102.103 59.1379C101.722 59.1379 101.388 59.2295 101.102 59.4129C100.816 59.5925 100.593 59.8437 100.431 60.1664C100.274 60.489 100.195 60.8612 100.195 61.2829C100.195 61.6899 100.272 62.051 100.426 62.3664C100.583 62.678 100.807 62.9237 101.097 63.1034C101.39 63.2794 101.74 63.3674 102.147 63.3674C102.569 63.3674 102.93 63.2702 103.231 63.0759C103.535 62.8779 103.759 62.6084 103.902 62.2674L104.881 62.6359C104.668 63.1565 104.322 63.5672 103.841 63.8679C103.361 64.1685 102.8 64.3189 102.158 64.3189ZM99.8042 61.6129V60.8264H104.672L104.98 61.6129H99.8042ZM108.254 63.3234H109.338V64.2089H106.087V63.3234H107.22V59.2039H106.087V58.3184H108.254V63.3234ZM110.399 59.4349C110.322 59.4129 110.241 59.3964 110.157 59.3854C110.076 59.3744 109.994 59.3689 109.91 59.3689C109.407 59.3689 109.006 59.5485 108.705 59.9079C108.404 60.2672 108.254 60.7677 108.254 61.4094L108.023 60.0949H108.298C108.346 59.6842 108.447 59.3414 108.601 59.0664C108.755 58.7877 108.954 58.5787 109.2 58.4394C109.446 58.3 109.728 58.2304 110.047 58.2304C110.109 58.2304 110.168 58.234 110.223 58.2414C110.282 58.245 110.34 58.2524 110.399 58.2634V59.4349ZM117.251 64.3189C116.631 64.3189 116.096 64.1905 115.645 63.9339C115.194 63.6735 114.847 63.316 114.605 62.8614C114.363 62.403 114.242 61.8769 114.242 61.2829C114.242 60.6852 114.365 60.1554 114.611 59.6934C114.857 59.2277 115.201 58.8647 115.645 58.6044C116.089 58.3404 116.606 58.2084 117.196 58.2084C117.794 58.2084 118.309 58.3385 118.741 58.5989C119.178 58.8592 119.511 59.2204 119.742 59.6824C119.977 60.1444 120.094 60.6779 120.094 61.2829C120.094 61.3709 120.093 61.4405 120.089 61.4919C120.085 61.5395 120.08 61.5799 120.072 61.6129H119.049C119.057 61.5579 119.062 61.4992 119.066 61.4369C119.07 61.3709 119.071 61.2939 119.071 61.2059C119.071 60.8062 118.996 60.4524 118.846 60.1444C118.699 59.8327 118.487 59.587 118.208 59.4074C117.929 59.2277 117.592 59.1379 117.196 59.1379C116.815 59.1379 116.481 59.2295 116.195 59.4129C115.909 59.5925 115.685 59.8437 115.524 60.1664C115.366 60.489 115.287 60.8612 115.287 61.2829C115.287 61.6899 115.364 62.051 115.518 62.3664C115.676 62.678 115.9 62.9237 116.189 63.1034C116.483 63.2794 116.833 63.3674 117.24 63.3674C117.662 63.3674 118.023 63.2702 118.323 63.0759C118.628 62.8779 118.851 62.6084 118.994 62.2674L119.973 62.6359C119.761 63.1565 119.414 63.5672 118.934 63.8679C118.454 64.1685 117.893 64.3189 117.251 64.3189ZM114.897 61.6129V60.8264H119.764L120.072 61.6129H114.897ZM124.432 58.3184H127.066V59.2039H126.434L124.41 64.2089H123.288L121.17 59.2039H120.549V58.3184H123.266V59.2039H122.287L124.322 64.2089L123.365 63.1199H124.333L123.502 64.2089L125.411 59.2039H124.432V58.3184ZM130.593 64.3189C129.973 64.3189 129.438 64.1905 128.987 63.9339C128.536 63.6735 128.189 63.316 127.947 62.8614C127.705 62.403 127.584 61.8769 127.584 61.2829C127.584 60.6852 127.707 60.1554 127.953 59.6934C128.198 59.2277 128.543 58.8647 128.987 58.6044C129.43 58.3404 129.947 58.2084 130.538 58.2084C131.135 58.2084 131.651 58.3385 132.083 58.5989C132.52 58.8592 132.853 59.2204 133.084 59.6824C133.319 60.1444 133.436 60.6779 133.436 61.2829C133.436 61.3709 133.434 61.4405 133.431 61.4919C133.427 61.5395 133.422 61.5799 133.414 61.6129H132.391C132.399 61.5579 132.404 61.4992 132.408 61.4369C132.411 61.3709 132.413 61.2939 132.413 61.2059C132.413 60.8062 132.338 60.4524 132.188 60.1444C132.041 59.8327 131.828 59.587 131.55 59.4074C131.271 59.2277 130.934 59.1379 130.538 59.1379C130.156 59.1379 129.823 59.2295 129.537 59.4129C129.251 59.5925 129.027 59.8437 128.866 60.1664C128.708 60.489 128.629 60.8612 128.629 61.2829C128.629 61.6899 128.706 62.051 128.86 62.3664C129.018 62.678 129.242 62.9237 129.531 63.1034C129.825 63.2794 130.175 63.3674 130.582 63.3674C131.003 63.3674 131.365 63.2702 131.665 63.0759C131.97 62.8779 132.193 62.6084 132.336 62.2674L133.315 62.6359C133.103 63.1565 132.756 63.5672 132.276 63.8679C131.795 64.1685 131.234 64.3189 130.593 64.3189ZM128.239 61.6129V60.8264H133.106L133.414 61.6129H128.239ZM136.689 63.3234H137.772V64.2089H134.522V63.3234H135.655V59.2039H134.522V58.3184H136.689V63.3234ZM138.834 59.4349C138.757 59.4129 138.676 59.3964 138.592 59.3854C138.511 59.3744 138.428 59.3689 138.344 59.3689C137.842 59.3689 137.44 59.5485 137.14 59.9079C136.839 60.2672 136.689 60.7677 136.689 61.4094L136.458 60.0949H136.733C136.78 59.6842 136.881 59.3414 137.035 59.0664C137.189 58.7877 137.389 58.5787 137.635 58.4394C137.88 58.3 138.163 58.2304 138.482 58.2304C138.544 58.2304 138.603 58.234 138.658 58.2414C138.716 58.245 138.775 58.2524 138.834 58.2634V59.4349ZM143.095 58.3184H145.823V59.2039H145.196L142.891 64.9239C142.682 65.4372 142.358 65.8314 141.918 66.1064C141.478 66.3814 140.937 66.5189 140.295 66.5189H139.696V65.6114H140.295C140.677 65.6114 141.018 65.5325 141.318 65.3749C141.623 65.2209 141.837 64.9935 141.962 64.6929L142.38 63.6589L142.187 64.5389L140.004 59.2039H139.283V58.3184H142.077V59.2039H141.12L142.979 63.8844L142.039 63.0704H143.034L142.495 63.5434L144.162 59.2039H143.095V58.3184ZM148.463 62.6304C148.463 62.8834 148.509 63.0722 148.601 63.1969C148.696 63.3179 148.833 63.3784 149.013 63.3784C149.193 63.3784 149.33 63.316 149.426 63.1914C149.521 63.063 149.569 62.876 149.569 62.6304V62.0529H150.487V62.6194C150.487 62.9824 150.434 63.2904 150.328 63.5434C150.225 63.7964 150.064 63.9889 149.844 64.1209C149.624 64.2529 149.339 64.3189 148.991 64.3189C148.632 64.3189 148.337 64.251 148.106 64.1154C147.878 63.976 147.708 63.7817 147.594 63.5324C147.484 63.2794 147.429 62.9787 147.429 62.6304V59.2039H146.439V58.3184H147.429V56.8334H148.463V58.3184H150.394L150.383 59.2039H148.463V62.6304ZM153.372 63.3234H154.318V64.2089H151.249V63.3234H152.338V56.4044H151.249V55.5189H153.372V63.3234ZM156.359 63.3234V60.4469C156.359 60.0215 156.261 59.6879 156.067 59.4459C155.876 59.2039 155.583 59.0829 155.187 59.0829C154.842 59.0829 154.533 59.1745 154.258 59.3579C153.986 59.5412 153.77 59.8052 153.609 60.1499C153.451 60.4909 153.372 60.8997 153.372 61.3764L153.141 60.1994H153.416C153.478 59.752 153.607 59.3799 153.801 59.0829C153.995 58.7822 154.241 58.5567 154.538 58.4064C154.839 58.256 155.18 58.1809 155.561 58.1809C156.173 58.1809 156.632 58.3642 156.936 58.7309C157.24 59.0975 157.393 59.6127 157.393 60.2764V63.3234H158.449V64.2089H155.429V63.3234H156.359ZM161.451 63.3234H162.518V64.2089H159.289V63.3234H160.417V59.2039H159.289V58.3184H161.451V63.3234ZM160.257 55.6674H161.522V56.9819H160.257V55.6674ZM165.51 63.3234H166.456V64.2089H163.343V63.3234H164.476V59.2039H163.343V58.3184H165.51V63.3234ZM168.496 63.3234V60.4689C168.496 60.0399 168.397 59.7025 168.199 59.4569C168.005 59.2075 167.704 59.0829 167.297 59.0829C166.96 59.0829 166.656 59.169 166.384 59.3414C166.117 59.5137 165.904 59.7612 165.746 60.0839C165.589 60.4029 165.51 60.7879 165.51 61.2389L165.279 60.0619H165.554C165.616 59.6549 165.741 59.3139 165.928 59.0389C166.115 58.7639 166.353 58.5567 166.643 58.4174C166.936 58.278 167.268 58.2084 167.638 58.2084C168.254 58.2084 168.724 58.3917 169.046 58.7584C169.369 59.125 169.53 59.6494 169.53 60.3314V63.3234H170.592V64.2089H167.567V63.3234H168.496ZM174.255 66.6564C173.742 66.6564 173.271 66.6087 172.842 66.5134C172.416 66.418 172.075 66.2677 171.819 66.0624C171.566 65.857 171.439 65.5875 171.439 65.2539C171.439 64.9239 171.569 64.6764 171.83 64.5114C172.09 64.35 172.422 64.2455 172.825 64.1979V64.0824L173.821 64.1869C173.439 64.1869 173.144 64.2309 172.935 64.3189C172.726 64.4105 172.581 64.5224 172.501 64.6544C172.42 64.79 172.38 64.9202 172.38 65.0449C172.38 65.2612 172.466 65.428 172.638 65.5454C172.81 65.6627 173.041 65.7452 173.331 65.7929C173.621 65.8405 173.938 65.8644 174.283 65.8644C174.976 65.8644 175.485 65.7764 175.812 65.6004C176.142 65.428 176.307 65.1769 176.307 64.8469C176.307 64.4069 176.03 64.1869 175.476 64.1869H173.243C172.785 64.1869 172.422 64.1044 172.154 63.9394C171.886 63.7744 171.753 63.5342 171.753 63.2189C171.753 62.9219 171.872 62.6927 172.11 62.5314C172.348 62.37 172.684 62.2674 173.117 62.2234V62.0254L174.101 62.3279H173.579C173.307 62.3279 173.098 62.3664 172.952 62.4434C172.805 62.5167 172.732 62.6322 172.732 62.7899C172.732 62.9402 172.801 63.0465 172.941 63.1089C173.084 63.1675 173.296 63.1969 173.579 63.1969H175.449C175.83 63.1969 176.158 63.2629 176.433 63.3949C176.708 63.5269 176.917 63.7139 177.06 63.9559C177.203 64.1979 177.275 64.4857 177.275 64.8194C177.275 65.1604 177.181 65.4702 176.994 65.7489C176.807 66.0275 176.494 66.2475 176.054 66.4089C175.614 66.5739 175.014 66.6564 174.255 66.6564ZM174.101 62.3279C173.628 62.3279 173.206 62.2435 172.836 62.0749C172.466 61.9025 172.174 61.6624 171.962 61.3544C171.749 61.0464 171.643 60.687 171.643 60.2764C171.643 59.862 171.747 59.5009 171.956 59.1929C172.169 58.8812 172.458 58.6392 172.825 58.4669C173.195 58.2945 173.621 58.2084 174.101 58.2084C174.581 58.2084 175.005 58.2964 175.372 58.4724C175.742 58.6447 176.028 58.8849 176.23 59.1929C176.336 59.3469 176.415 59.5137 176.466 59.6934C176.517 59.873 176.543 60.0674 176.543 60.2764C176.543 60.687 176.439 61.0464 176.23 61.3544C176.021 61.6624 175.731 61.9025 175.361 62.0749C174.994 62.2435 174.574 62.3279 174.101 62.3279ZM174.101 61.4809C174.372 61.4809 174.616 61.4314 174.833 61.3324C175.049 61.2334 175.219 61.094 175.344 60.9144C175.469 60.731 175.531 60.5184 175.531 60.2764C175.531 60.0307 175.469 59.8162 175.344 59.6329C175.219 59.4495 175.049 59.3084 174.833 59.2094C174.616 59.1067 174.372 59.0554 174.101 59.0554C173.822 59.0554 173.573 59.1067 173.353 59.2094C173.137 59.3084 172.966 59.4495 172.842 59.6329C172.717 59.8162 172.655 60.0307 172.655 60.2764C172.655 60.5184 172.717 60.731 172.842 60.9144C172.966 61.094 173.137 61.2334 173.353 61.3324C173.573 61.4314 173.822 61.4809 174.101 61.4809ZM176.543 60.2764L176.213 59.6274L175.96 59.2479L176.235 59.1324C176.224 59.092 176.215 59.0535 176.208 59.0169C176.204 58.9765 176.202 58.9344 176.202 58.8904C176.202 58.7217 176.241 58.575 176.318 58.4504C176.395 58.322 176.503 58.223 176.642 58.1534C176.781 58.0837 176.945 58.0489 177.132 58.0489C177.183 58.0489 177.231 58.0507 177.275 58.0544C177.319 58.058 177.359 58.0635 177.396 58.0709V59.0719C177.315 59.0609 177.243 59.0535 177.181 59.0499C177.119 59.0425 177.056 59.0389 176.994 59.0389C176.858 59.0389 176.75 59.0554 176.67 59.0884C176.589 59.1177 176.53 59.158 176.494 59.2094C176.457 59.2607 176.439 59.3212 176.439 59.3909C176.439 59.4495 176.448 59.5229 176.466 59.6109C176.484 59.6952 176.501 59.7942 176.516 59.9079C176.534 60.0179 176.543 60.1407 176.543 60.2764ZM178.372 62.8284H179.797V64.2089H178.372V62.8284ZM181.391 62.8284H182.815V64.2089H181.391V62.8284Z" fill="black"/>
</svg>
