<svg width="25" height="25" viewBox="0 0 132 150" fill="none" xmlns="http://www.w3.org/2000/svg">
<path d="M131.09 65.53V131.84C131.087 136.563 129.21 141.091 125.871 144.431C122.531 147.77 118.003 149.647 113.28 149.65H18.28C13.5573 149.647 9.02878 147.77 5.68933 144.431C2.34988 141.091 0.47262 136.563 0.469971 131.84V65.53C0.478263 60.8095 2.35933 56.2851 5.70007 52.95L53.1901 5.46001C56.5723 2.21124 61.0802 0.396896 65.77 0.396896C70.4598 0.396896 74.9677 2.21124 78.35 5.46001L125.84 52.95C129.188 56.2818 131.076 60.8066 131.09 65.53Z" fill="#A29FCE"/>
<path d="M125.86 52.95L78.39 5.46001C75.0368 2.16225 70.5131 0.328277 65.8101 0.360009V149.65H113.3C118.023 149.647 122.551 147.77 125.891 144.431C129.23 141.091 131.107 136.563 131.11 131.84V65.53C131.096 60.8066 129.208 56.2818 125.86 52.95Z" fill="#6166AF"/>
<path d="M89.53 102.16V149.65H42.0501V102.16C42.0487 99.8216 42.5082 97.5059 43.4021 95.3452C44.296 93.1844 45.607 91.221 47.26 89.567C48.913 87.9131 50.8756 86.6011 53.0359 85.7059C55.1961 84.8107 57.5116 84.35 59.85 84.35H71.73C74.0684 84.35 76.3838 84.8107 78.5441 85.7059C80.7043 86.6011 82.6671 87.9131 84.3201 89.567C85.9731 91.221 87.284 93.1844 88.178 95.3452C89.0719 97.5059 89.5313 99.8216 89.53 102.16Z" fill="#6376B9"/>
<path d="M89.53 102.16C89.5313 99.8216 89.0719 97.5059 88.178 95.3452C87.284 93.1844 85.9731 91.221 84.3201 89.567C82.6671 87.9131 80.7043 86.6011 78.5441 85.7059C76.3838 84.8107 74.0684 84.35 71.73 84.35H65.79V149.65H89.53V102.16Z" fill="#425FAC"/>
</svg>
