<svg width="164 height="165" viewBox="0 0 168 168" fill="none" xmlns="http://www.w3.org/2000/svg">
<path d="M146.3 14H21.7C19.6578 14 17.6993 14.8112 16.2553 16.2553C14.8112 17.6993 14 19.6578 14 21.7V146.3C14 147.311 14.1992 148.312 14.5861 149.247C14.9731 150.181 15.5403 151.03 16.2553 151.745C16.9703 152.46 17.8191 153.027 18.7533 153.414C19.6875 153.801 20.6888 154 21.7 154H88.76V99.75H70.56V78.75H88.76V63C88.383 59.3023 88.8195 55.5669 90.039 52.0558C91.2585 48.5446 93.2314 45.3428 95.8193 42.6749C98.4072 40.0069 101.547 37.9375 105.02 36.6117C108.492 35.2858 112.213 34.7358 115.92 35C121.368 34.9665 126.814 35.2469 132.23 35.84V54.74H121.1C112.28 54.74 110.6 58.94 110.6 65.03V78.54H131.6L128.87 99.54H110.6V154H146.3C147.311 154 148.312 153.801 149.247 153.414C150.181 153.027 151.03 152.46 151.745 151.745C152.46 151.03 153.027 150.181 153.414 149.247C153.801 148.312 154 147.311 154 146.3V21.7C154 20.6888 153.801 19.6875 153.414 18.7533C153.027 17.8191 152.46 16.9703 151.745 16.2553C151.03 15.5403 150.181 14.9731 149.247 14.5861C148.312 14.1992 147.311 14 146.3 14V14Z" fill="#201F25"/>
</svg>
