<svg width="94" height="191" viewBox="0 0 94 191" fill="none" xmlns="http://www.w3.org/2000/svg">
<path d="M202.583 52.1269C202.48 48.6935 202.172 45.2669 201.662 41.8607C200.975 38.8773 199.829 35.9867 198.255 33.2657C196.609 30.314 194.399 27.6234 191.717 25.3073C189.011 23.017 185.903 21.11 182.509 19.6569C179.356 18.3235 176.012 17.3599 172.564 16.7919C168.66 16.2866 164.724 15.9942 160.777 15.9165H60.3144C56.3417 16.0059 52.3769 16.2716 48.4357 16.7123C44.9837 17.3066 41.6391 18.2969 38.4907 19.6569C35.0753 21.0794 31.9622 22.9897 29.2823 25.3073C26.6322 27.6464 24.4258 30.3322 22.7444 33.2657C21.2015 35.9903 20.0867 38.8809 19.4294 41.8607C18.8447 45.2345 18.5064 48.6368 18.4165 52.0473C18.4165 53.5594 18.4165 55.7082 18.4165 56.3448V134.655C18.4165 135.53 18.4165 137.44 18.4165 138.873C18.52 142.306 18.8273 145.733 19.3373 149.139C20.0249 152.122 21.1707 155.013 22.7444 157.734C24.3903 160.686 26.6006 163.376 29.2823 165.692C31.9888 167.983 35.0964 169.89 38.4907 171.343C41.6433 172.676 44.9879 173.64 48.4357 174.208C52.3394 174.713 56.2761 175.005 60.2223 175.083H160.685C164.658 174.994 168.623 174.728 172.564 174.287C176.016 173.693 179.361 172.703 182.509 171.343C185.924 169.92 189.037 168.01 191.717 165.692C194.367 163.353 196.574 160.667 198.255 157.734C199.798 155.009 200.913 152.119 201.57 149.139C202.155 145.765 202.493 142.363 202.583 138.952C202.583 137.44 202.583 135.53 202.583 134.655V56.3448C202.583 55.7082 202.583 53.5594 202.583 52.1269ZM112.618 151.208C101.559 151.161 90.6939 148.697 81.0332 144.046L46.0415 152.004L55.2498 122.399C49.3115 113.776 46.1335 103.943 46.0415 93.9082C46.0782 82.6306 49.9753 71.6146 57.2422 62.2476C64.509 52.8806 74.8205 45.5814 86.878 41.2695C98.9355 36.9575 112.2 35.8256 125 38.0163C137.8 40.207 149.565 45.6223 158.811 53.5801C168.057 61.538 174.372 71.6826 176.96 82.7362C179.548 93.7897 178.293 105.258 173.354 115.697C168.415 126.135 160.012 135.077 149.204 141.396C138.396 147.716 125.666 151.13 112.618 151.208V151.208ZM112.618 46.7153C102.855 46.8118 93.2965 49.1424 84.915 53.4698C76.5335 57.7972 69.6284 63.9668 64.9029 71.3504C60.1774 78.7341 57.8001 87.0681 58.0131 95.504C58.2262 103.94 61.0219 112.176 66.1157 119.375L67.4048 121.205L61.8798 138.634L82.8748 133.7L84.9007 134.734C93.2763 138.998 102.805 141.277 112.526 141.34V141.34C127.179 141.34 141.232 136.309 151.593 127.354C161.955 118.399 167.776 106.254 167.776 93.5898C167.776 80.9258 161.955 68.7804 151.593 59.8255C141.232 50.8706 127.179 45.8398 112.526 45.8398L112.618 46.7153ZM144.847 114.52C143.641 116.259 142.026 117.759 140.107 118.925C138.187 120.09 136.006 120.894 133.705 121.285C130.266 121.828 126.725 121.637 123.392 120.728C120.255 119.88 117.18 118.87 114.183 117.704C102.799 112.767 93.0909 105.363 86.0057 96.2161C82.1555 91.9781 79.8194 86.8615 79.2836 81.4932C79.2288 79.2632 79.7169 77.0481 80.7163 74.9916C81.7157 72.9351 83.204 71.0831 85.0848 69.5557C85.6388 69.0128 86.3185 68.5765 87.0799 68.2749C87.8412 67.9733 88.6674 67.8132 89.5048 67.8048H92.0832C93.0961 67.8048 94.4773 67.8048 95.7665 70.2719C97.0557 72.739 100.463 80.1403 100.923 80.8565C101.149 81.2383 101.267 81.6611 101.267 82.09C101.267 82.519 101.149 82.9418 100.923 83.3236C100.516 84.1884 99.957 84.9937 99.2657 85.7111C98.4369 86.5865 97.5161 87.6211 96.7794 88.2578C96.0428 88.8944 95.1219 89.6903 96.0428 91.1228C98.5482 94.7771 101.649 98.1007 105.251 100.991C109.173 103.986 113.657 106.382 118.511 108.074C120.169 108.79 121.182 108.711 122.102 108.074C123.023 107.437 126.246 103.936 127.351 102.503C128.456 101.071 129.561 101.309 131.034 101.787C132.508 102.264 140.703 105.687 142.361 106.403C144.018 107.119 145.031 107.437 145.492 108.074C145.891 110.157 145.669 112.293 144.847 114.282V114.52Z" fill="#201F25"/>
</svg>
